<svg viewBox="0 0 22 22" xmlns="http://www.w3.org/2000/svg" fill-rule="evenodd" clip-rule="evenodd" stroke-linejoin="round" stroke-miterlimit="2"><path d="M19.878 2.82H4.208c-.047 0-.09.017-.134.03l-.386-1.265a.956.956 0 00-.914-.678H.862a.478.478 0 00-.478.478v.956c0 .264.214.478.478.478h1.204l2.987 9.815-1.116 1.302c-.44.514-.64 1.223-.436 1.87a1.9 1.9 0 001.83 1.354h13.696a.478.478 0 00.478-.478v-.956a.478.478 0 00-.478-.478H5.331l1.515-1.768c.038-.044.066-.094.095-.144h9.264c.74 0 1.415-.428 1.73-1.098l3.336-7.089c.096-.204.146-.43.146-.655V4.36c0-.85-.69-1.54-1.54-1.54zM6.12 18.116a1.912 1.912 0 110 3.825 1.912 1.912 0 010-3.825zm11.473 0a1.912 1.912 0 110 3.825 1.912 1.912 0 010-3.825z" fill="#333" fill-rule="nonzero"/></svg>