<svg viewBox="0 0 29 20" xmlns="http://www.w3.org/2000/svg" fill-rule="evenodd" clip-rule="evenodd" stroke-linejoin="round" stroke-miterlimit="2"><path d="M28.266 3.863v12.228l-9.471-5.987 9.471-6.24zM9.643 10.104L.17 16.09V3.863l9.472 6.24zm18.571-8.308C28.082.956 27.387.302 26.51.302H1.927C1.051.302.356.955.224 1.796l13.995 9.22 13.995-9.22zM14.702 12.8a.877.877 0 01-.966 0l-2.485-1.637L.227 18.135c.136.834.827 1.482 1.7 1.482h24.584c.872 0 1.564-.648 1.7-1.482l-11.025-6.97-2.484 1.636z" fill="#fdec04" fill-rule="nonzero"/></svg>