<svg viewBox="0 0 24 24" xmlns="http://www.w3.org/2000/svg" fill-rule="evenodd" clip-rule="evenodd" stroke-linejoin="round" stroke-miterlimit="2"><path d="M20.975 14.432c-.363 1.433-2.224 3.215-3.702 3.544a27.17 27.17 0 01-5.834.472.138.138 0 00-.104.042l-1.814 1.862-1.93 1.98a.226.226 0 01-.389-.155v-4.063a.14.14 0 00-.114-.137c-1.479-.33-3.338-2.112-3.702-3.545a19.467 19.467 0 010-8.36c.364-1.43 2.224-3.213 3.702-3.543a27.147 27.147 0 0110.185 0c1.479.33 3.34 2.113 3.702 3.545a19.467 19.467 0 010 8.359m1.966-8.804l-.006-.026C22.39 3.404 19.94 1.046 17.69.556L17.665.55a29.107 29.107 0 00-10.97 0L6.67.556c-2.25.49-4.7 2.848-5.244 5.046l-.006.026a21.468 21.468 0 000 9.25l.006.026c.521 2.103 2.79 4.352 4.955 4.971v2.453c0 .888 1.082 1.323 1.697.683l2.486-2.583a28.83 28.83 0 007.101-.473l.025-.006c2.251-.49 4.7-2.848 5.245-5.045l.006-.027c.672-3.068.672-6.18 0-9.25" fill="#fdec04" fill-rule="nonzero"/><path d="M15.402 16.307c-.228-.068-.444-.114-.644-.198-2.085-.864-4.003-1.98-5.523-3.69-.863-.973-1.54-2.071-2.112-3.233-.27-.55-.5-1.123-.732-1.692-.212-.519.101-1.055.43-1.445.31-.367.707-.647 1.137-.855.337-.162.668-.068.913.216.53.616 1.019 1.264 1.413 1.977.243.44.176.977-.263 1.276-.107.072-.205.158-.305.24a1.02 1.02 0 00-.229.242.663.663 0 00-.044.582c.543 1.49 1.457 2.65 2.957 3.274.24.1.481.216.758.184.463-.054.614-.563.938-.828.317-.259.722-.263 1.064-.046.343.216.674.448 1.003.682.323.231.645.456.944.719.287.253.385.585.223.926-.295.629-.725 1.15-1.346 1.484-.175.095-.384.125-.582.185-.228-.068.198-.06 0 0M12.189 4.476c2.726.077 4.965 1.886 5.445 4.58.082.46.11.93.147 1.396.016.196-.096.382-.307.385-.218.002-.317-.18-.331-.376-.028-.389-.048-.778-.101-1.163-.282-2.03-1.901-3.71-3.923-4.071-.304-.055-.616-.069-.924-.101-.195-.02-.45-.032-.493-.274-.036-.203.135-.365.328-.376.053-.002.106 0 .159 0 2.726.077-.053 0 0 0" fill="#fdec04" fill-rule="nonzero"/><path d="M16.328 9.847c-.004.034-.007.114-.027.19-.072.273-.487.308-.583.032a.84.84 0 01-.033-.264c0-.578-.126-1.154-.417-1.656a3.073 3.073 0 00-1.293-1.214 3.71 3.71 0 00-1.03-.316c-.155-.025-.313-.041-.469-.064-.19-.026-.29-.146-.28-.333.007-.174.134-.3.326-.289.625.036 1.23.17 1.785.465 1.132.599 1.777 1.545 1.967 2.807.008.057.022.114.026.171.01.142.017.284.028.471-.004.034-.01-.187 0 0" fill="#fdec04" fill-rule="nonzero"/><path d="M14.637 9.781c-.228.004-.35-.122-.374-.331-.016-.146-.03-.294-.064-.435a1.23 1.23 0 00-.452-.71 1.19 1.19 0 00-.368-.178c-.167-.048-.342-.035-.508-.076-.182-.044-.282-.19-.253-.361a.327.327 0 01.345-.263c1.057.075 1.813.622 1.92 1.867.008.087.017.18-.002.264-.034.144-.14.216-.244.223-.228.004.104-.007 0 0" fill="#fdec04" fill-rule="nonzero"/></svg>